<svg width="90" height="36" viewBox="0 0 90 36" fill="none" xmlns="http://www.w3.org/2000/svg">
<path d="M80.9209 13.2644C83.6621 13.2646 85.8856 11.0358 85.8873 8.28633C85.8889 5.53688 83.668 3.30792 80.9268 3.3078C78.1854 3.3077 75.9619 5.53648 75.9603 8.28593C75.9588 11.0354 78.1795 13.2643 80.9209 13.2644Z" fill="url(#paint0_linear_1_157)"/>
<path d="M17.3033 0.434918C7.75647 0.434403 0.00546963 8.09596 2.89329e-06 17.564C-0.00546386 27.032 7.73669 34.6944 17.2835 34.6949C22.6297 34.6952 27.4318 32.2874 30.598 28.5112L30.4345 28.5661L25.5274 23.859C23.6166 26.3217 20.6151 27.9088 17.2875 27.9085C11.5594 27.9083 6.92499 23.2561 6.92828 17.5643C6.93157 11.8726 11.5713 7.22094 17.2993 7.22123C20.6818 7.22142 23.6267 8.8087 25.5347 11.2716L30.4471 6.5652L30.5563 6.51049C27.3397 2.8435 22.595 0.435205 17.3033 0.434918ZM71.0932 2.57369e-08C61.601 -0.000512739 53.9044 7.66103 53.899 17.129C53.8935 26.5971 61.5811 34.2594 71.0735 34.2599C80.5657 34.2604 88.2621 26.599 88.2676 17.1309C88.2685 15.5438 88.0513 13.9566 87.6156 12.479C86.2506 14.5586 83.9585 15.9814 81.3399 16.1454C81.3942 16.4738 81.394 16.8022 81.3939 17.1305C81.3906 22.8769 76.7509 27.474 71.0773 27.4736C65.4038 27.4733 60.7693 22.8212 60.7726 17.1294C60.7761 11.3829 65.4157 6.78601 71.0892 6.78632C71.7985 6.78636 72.4531 6.84112 73.1076 7.00533C73.491 4.43312 75.1288 2.29881 77.3117 1.14963C75.3481 0.438055 73.2753 0.00011791 71.0932 2.57369e-08ZM33.7782 0.818909L40.5429 0.819275L40.5273 27.7457L52.7472 27.7462L54.4345 34.3685L33.7043 34.3673L33.7236 0.818907L33.7782 0.818909Z" fill="white"/>
<defs>
<linearGradient id="paint0_linear_1_157" x1="80.9238" y1="1.44093" x2="75.4895" y2="3.74997" gradientUnits="userSpaceOnUse">
<stop stop-color="#0999EE"/>
<stop offset="1" stop-color="#0083CF"/>
</linearGradient>
</defs>
</svg>
