<svg width="22" height="22" viewBox="0 0 22 22" fill="none" xmlns="http://www.w3.org/2000/svg">
<path d="M1.29688 11.7266L1.25 11.6562C1.09375 11.4844 1 11.3594 0.96875 11.2812C0.90625 11.1875 0.875 11.0859 0.875 10.9766C0.875 10.8672 0.921875 10.7188 1.01562 10.5312L1.20312 10.2266C1.34375 10.0391 1.53906 9.80469 1.78906 9.52344C2.38281 8.86719 3.08594 8.22656 3.89844 7.60156C4.91406 6.82031 5.95312 6.21094 7.01562 5.77344C8.32812 5.22656 9.625 4.95312 10.9062 4.95312C11.5625 4.95312 12.2656 5.03125 13.0156 5.1875L11.7266 6.33594C11.5547 6.30469 11.2969 6.28906 10.9531 6.28906C9.85938 6.28906 8.73438 6.53125 7.57812 7.01562C6.60938 7.40625 5.67188 7.95312 4.76562 8.65625C3.98438 9.25 3.34375 9.82031 2.84375 10.3672C2.65625 10.5703 2.49219 10.7656 2.35156 10.9531C2.39844 11 2.47656 11.0938 2.58594 11.2344L2.84375 11.5391C3.04688 11.7734 3.46875 12.1797 4.10938 12.7578L4.17969 12.8281L3.17188 13.6953C2.70312 13.3047 2.27344 12.8828 1.88281 12.4297C1.64844 12.1484 1.45312 11.9141 1.29688 11.7266ZM7.01562 10.4141C7.10938 9.78906 7.34375 9.21875 7.71875 8.70312C8.09375 8.17188 8.57031 7.75781 9.14844 7.46094C9.72656 7.14844 10.3438 6.98437 11 6.96875H11.0469L7.01562 10.4141ZM20.6562 10.2734C20.8594 10.5391 20.9844 10.7969 21.0312 11.0469C21.0312 11.1719 21.0156 11.2656 20.9844 11.3281C20.6562 11.875 20.2109 12.4297 19.6484 12.9922C19.2109 13.4141 18.6641 13.8828 18.0078 14.3984C16.9766 15.1797 15.9375 15.7891 14.8906 16.2266C13.5781 16.7734 12.2812 17.0469 11 17.0469C9.23438 17.0469 7.375 16.4844 5.42188 15.3594L2.11719 18.1953C1.96094 18.3047 1.78906 18.3516 1.60156 18.3359C1.42969 18.3203 1.28125 18.25 1.15625 18.125C1.03125 17.9844 0.96875 17.8359 0.96875 17.6797C0.96875 17.5078 1.03125 17.3594 1.15625 17.2344L19.9766 1.10938C20.1172 1.01562 20.2656 0.976563 20.4219 0.992188C20.5781 1.00781 20.7031 1.08594 20.7969 1.22656C20.8906 1.36719 20.9297 1.53125 20.9141 1.71875C20.9141 1.90625 20.8438 2.05469 20.7031 2.16406L15.8516 6.28906C16.6328 6.74219 17.3203 7.19531 17.9141 7.64844C18.9297 8.39844 19.7422 9.16406 20.3516 9.94531C20.4922 10.0703 20.5938 10.1797 20.6562 10.2734ZM12.7812 9.03125L8.70312 12.4766C8.9375 12.8516 9.25781 13.1484 9.66406 13.3672C10.0703 13.5859 10.5 13.6953 10.9531 13.6953C11.4375 13.6953 11.8828 13.5781 12.2891 13.3438C12.7109 13.0938 13.0391 12.7656 13.2734 12.3594C13.5234 11.9375 13.6484 11.4844 13.6484 11C13.6484 10.625 13.5703 10.2656 13.4141 9.92188C13.2578 9.57812 13.0469 9.28125 12.7812 9.03125ZM19.1094 11.5859L19.6016 11.0938C19.5547 11.0469 19.4766 10.9531 19.3672 10.8125L19.1094 10.5312C18.375 9.78125 17.7344 9.20312 17.1875 8.79688C16.5781 8.3125 15.7969 7.82812 14.8438 7.34375L13.7891 8.21094C14.1641 8.58594 14.4531 9.02344 14.6562 9.52344C14.875 10.0078 14.9844 10.5156 14.9844 11.0469C14.9844 11.7656 14.8047 12.4297 14.4453 13.0391C14.0859 13.6484 13.6016 14.1328 12.9922 14.4922C12.3828 14.8516 11.7188 15.0312 11 15.0312C10.3438 15.0312 9.72656 14.8828 9.14844 14.5859C8.57031 14.2734 8.10156 13.8594 7.74219 13.3438L6.47656 14.3984C8.03906 15.2422 9.54688 15.6641 11 15.6641C12.0938 15.6641 13.2188 15.4219 14.375 14.9375C15.3438 14.5469 16.2812 14 17.1875 13.2969C17.9688 12.7031 18.6094 12.1328 19.1094 11.5859Z" fill="#6884A4"/>
</svg>
