<svg width="20" height="12" viewBox="0 0 20 12" fill="none" xmlns="http://www.w3.org/2000/svg">
<path d="M10 1.99219C10.7188 1.99219 11.3828 2.17188 11.9922 2.53125C12.6172 2.89062 13.1094 3.38281 13.4688 4.00781C13.8281 4.61719 14.0078 5.28125 14.0078 6C14.0078 6.71875 13.8281 7.39062 13.4688 8.01562C13.1094 8.625 12.6172 9.10938 11.9922 9.46875C11.3828 9.82812 10.7188 10.0078 10 10.0078C9.28125 10.0078 8.60938 9.82812 7.98438 9.46875C7.375 9.10938 6.89062 8.625 6.53125 8.01562C6.17188 7.39062 5.99219 6.71875 5.99219 6C5.99219 5.28125 6.17188 4.61719 6.53125 4.00781C6.89062 3.38281 7.375 2.89062 7.98438 2.53125C8.60938 2.17188 9.28125 1.99219 10 1.99219ZM7.32812 6C7.32812 6.48438 7.44531 6.92969 7.67969 7.33594C7.92969 7.74219 8.25781 8.07031 8.66406 8.32031C9.07031 8.55469 9.51562 8.67188 10 8.67188C10.4844 8.67188 10.9297 8.55469 11.3359 8.32031C11.7422 8.07031 12.0625 7.74219 12.2969 7.33594C12.5469 6.92969 12.6719 6.48438 12.6719 6C12.6719 5.51562 12.5469 5.07031 12.2969 4.66406C12.0625 4.25781 11.7422 3.9375 11.3359 3.70312C10.9297 3.45312 10.4844 3.32812 10 3.32812C9.51562 3.32812 9.07031 3.45312 8.66406 3.70312C8.25781 3.9375 7.92969 4.25781 7.67969 4.66406C7.44531 5.07031 7.32812 5.51562 7.32812 6ZM10 0C11.2812 0 12.5781 0.273437 13.8906 0.820312C14.9531 1.25781 15.9922 1.85938 17.0078 2.625C17.7891 3.23438 18.4844 3.86719 19.0938 4.52344C19.3438 4.80469 19.5391 5.04688 19.6797 5.25C19.7578 5.375 19.8203 5.47656 19.8672 5.55469L19.9375 5.71875C19.9844 5.8125 20.0078 5.90625 20.0078 6C20.0078 6.09375 19.9844 6.1875 19.9375 6.28125L19.8672 6.44531C19.8203 6.52344 19.7578 6.625 19.6797 6.75C19.5391 6.95312 19.3438 7.19531 19.0938 7.47656C18.4844 8.13281 17.7891 8.76562 17.0078 9.375C15.9922 10.1406 14.9531 10.7422 13.8906 11.1797C12.5781 11.7266 11.2812 12 10 12C8.71875 12 7.42188 11.7266 6.10938 11.1797C5.04688 10.7422 4.00781 10.1406 2.99219 9.375C2.21094 8.76562 1.51562 8.13281 0.90625 7.47656C0.65625 7.19531 0.460938 6.95312 0.320312 6.75C0.242188 6.625 0.179688 6.52344 0.132812 6.44531L0.0625 6.28125C0.015625 6.1875 -0.0078125 6.09375 -0.0078125 6C-0.0078125 5.90625 0.015625 5.8125 0.0625 5.71875L0.132812 5.55469C0.179688 5.47656 0.242188 5.375 0.320312 5.25C0.460938 5.04688 0.65625 4.80469 0.90625 4.52344C1.51562 3.86719 2.21094 3.23438 2.99219 2.625C4.00781 1.85938 5.04688 1.25781 6.10938 0.820312C7.42188 0.273437 8.71875 0 10 0ZM1.89062 6.5625C2.4375 7.17188 3.07812 7.75 3.8125 8.29688C4.73438 9 5.67188 9.54688 6.625 9.9375C7.78125 10.4219 8.90625 10.6641 10 10.6641C11.0938 10.6641 12.2188 10.4219 13.375 9.9375C14.3281 9.54688 15.2656 9 16.1875 8.29688C16.9219 7.75 17.5625 7.17188 18.1094 6.5625C18.2969 6.35938 18.4531 6.17188 18.5781 6C18.4531 5.82812 18.2969 5.64062 18.1094 5.4375C17.5625 4.82812 16.9219 4.25 16.1875 3.70312C15.2656 3 14.3281 2.45312 13.375 2.0625C12.2188 1.57813 11.0938 1.33594 10 1.33594C8.90625 1.33594 7.78125 1.57813 6.625 2.0625C5.67188 2.45312 4.73438 3 3.8125 3.70312C3.07812 4.25 2.4375 4.82812 1.89062 5.4375C1.70312 5.64062 1.54688 5.82812 1.42188 6C1.54688 6.17188 1.70312 6.35938 1.89062 6.5625Z" fill="#6884A4"/>
</svg>
